<svg width="30" height="32" fill="none" xmlns="http://www.w3.org/2000/svg"><path d="M27.665 12.946L5.828.464a3.523 3.523 0 0 0-3.511.011A3.528 3.528 0 0 0 .564 3.518v24.964a3.52 3.52 0 0 0 5.263 3.054l21.837-12.482A3.526 3.526 0 0 0 29.438 16c0-1.26-.68-2.43-1.772-3.054zm-9.463-2.952l-2.998 4.177-7.172-9.99 10.17 5.813zM3.944 29.854a1.373 1.373 0 0 1-.557-.174 1.389 1.389 0 0 1-.69-1.198V3.518c0-.492.265-.95.69-1.198.17-.099.36-.157.555-.177L13.891 16 3.944 29.855zm4.088-2.035l7.172-9.99 2.998 4.176-10.17 5.814zm18.574-10.617l-6.542 3.739L16.517 16l3.547-4.941 6.542 3.74c.43.245.697.706.697 1.2 0 .496-.267.957-.697 1.203z" fill="#041027"/></svg>